<?xml version="1.0" standalone="no"?>
<!DOCTYPE svg PUBLIC "-//W3C//DTD SVG 20010904//EN"
 "http://www.w3.org/TR/2001/REC-SVG-20010904/DTD/svg10.dtd">
<svg version="1.0" xmlns="http://www.w3.org/2000/svg"
 width="86.000000pt" height="133.000000pt" viewBox="0 0 86.000000 133.000000"
 preserveAspectRatio="xMidYMid meet">

<g transform="translate(0.000000,133.000000) scale(0.100000,-0.100000)"
fill="#000000" stroke="none">
<path d="M323 1315 c-77 -21 -130 -51 -188 -106 -60 -57 -98 -122 -120 -204
-22 -85 -22 -595 0 -680 22 -83 60 -147 122 -206 237 -224 625 -111 708 206
22 84 22 595 0 678 -21 81 -49 132 -106 192 -107 113 -269 159 -416 120z m270
-47 c79 -37 160 -116 200 -197 l32 -66 0 -340 0 -340 -27 -58 c-38 -80 -117
-160 -197 -200 -61 -30 -72 -32 -171 -32 -99 0 -110 2 -171 32 -80 40 -159
120 -197 200 l-27 58 0 340 0 340 27 57 c47 101 147 190 251 224 70 23 210 14
280 -18z"/>
<path d="M357 1252 c-17 -2 -26 -8 -23 -15 3 -7 9 -20 12 -29 10 -27 22 -21
16 7 -2 15 0 25 7 25 6 0 11 -11 11 -25 0 -14 5 -25 10 -25 6 0 10 8 10 18 0
10 3 13 8 6 12 -17 39 -23 51 -11 8 8 11 8 11 -1 0 -7 13 -12 29 -12 23 0 30
5 35 26 8 29 0 46 -10 21 -3 -9 -12 -13 -20 -10 -8 3 -12 9 -9 13 3 5 1 11 -5
15 -5 3 -10 -3 -10 -14 0 -12 -4 -21 -9 -21 -5 0 -8 8 -7 17 0 10 -7 19 -16
21 -10 2 -18 -2 -18 -8 0 -6 4 -9 9 -5 6 3 9 -3 8 -13 -2 -27 -27 -23 -27 5 0
13 -4 23 -10 23 -5 0 -10 -6 -10 -12 0 -8 -3 -9 -8 -3 -4 6 -20 9 -35 7z"/>
<path d="M295 1230 c-3 -6 -4 -19 0 -29 3 -11 0 -21 -8 -24 -10 -4 -13 2 -11
19 1 15 -3 24 -11 24 -21 0 -27 -17 -14 -42 12 -23 12 -23 -9 -5 -22 20 -42
16 -42 -9 0 -8 -9 -14 -20 -14 -22 0 -26 -20 -8 -38 17 -17 48 -15 48 4 0 10
-6 14 -15 11 -8 -4 -17 -2 -20 3 -10 16 20 18 38 2 9 -8 17 -11 17 -5 0 5 18
18 40 28 24 11 39 24 36 31 -3 7 0 14 6 16 13 5 3 38 -11 38 -5 0 -13 -5 -16
-10z m-55 -81 c0 -6 -4 -7 -10 -4 -5 3 -10 11 -10 16 0 6 5 7 10 4 6 -3 10
-11 10 -16z"/>
<path d="M572 1206 c-17 -37 -15 -51 3 -36 13 11 15 10 9 -6 -4 -14 -1 -13 15
6 24 30 26 40 7 40 -8 0 -16 5 -18 11 -2 6 -9 -1 -16 -15z"/>
<path d="M636 1158 c-20 -29 -20 -42 0 -34 9 4 13 2 8 -5 -13 -22 19 -3 34 19
13 20 13 22 -2 22 -10 0 -14 5 -11 10 13 20 -14 9 -29 -12z"/>
<path d="M672 1118 c-17 -17 -15 -38 3 -38 9 0 15 -7 13 -17 -2 -10 5 -19 16
-21 11 -2 16 0 12 7 -4 6 -4 16 0 22 4 8 9 7 15 -2 4 -7 11 -10 14 -7 14 13
-8 29 -30 24 -27 -7 -43 10 -26 27 8 8 11 8 11 -1 0 -7 5 -12 10 -12 6 0 10 7
10 15 0 18 -31 20 -48 3z"/>
<path d="M144 1104 c3 -8 2 -12 -4 -9 -20 13 -9 -13 13 -29 22 -16 22 -16 -6
-4 -21 9 -30 9 -39 0 -6 -6 -8 -15 -3 -19 4 -5 10 -3 12 4 4 10 7 10 18 0 7
-7 11 -15 8 -19 -2 -5 0 -8 6 -8 14 0 33 38 26 50 -3 6 2 10 12 11 15 0 14 2
-4 11 -13 6 -23 15 -23 20 0 4 -5 8 -11 8 -6 0 -8 -7 -5 -16z"/>
<path d="M255 1090 c-3 -5 -1 -10 4 -10 6 0 11 5 11 10 0 6 -2 10 -4 10 -3 0
-8 -4 -11 -10z"/>
<path d="M253 1025 c0 -22 2 -30 4 -17 2 12 2 30 0 40 -3 9 -5 -1 -4 -23z"/>
<path d="M619 1053 c-1 -4 0 -25 1 -45 1 -35 0 -37 -27 -35 -22 2 -29 -3 -31
-20 -4 -29 -19 -39 -69 -47 -47 -7 -50 -2 -29 39 30 57 -25 113 -68 69 -9 -8
-14 -19 -11 -24 3 -5 0 -10 -7 -12 -10 -4 -10 -11 1 -34 l14 -29 8 35 c5 21 4
37 -3 41 -7 4 -6 9 2 14 7 4 16 2 20 -5 4 -7 12 -10 18 -6 13 8 10 -12 -6 -41
-8 -15 -9 -23 -2 -23 5 0 10 8 11 18 0 12 2 13 6 3 3 -8 -2 -20 -11 -26 -14
-11 -14 -14 -1 -25 20 -17 10 -30 -26 -30 -29 0 -40 14 -16 23 7 3 5 6 -5 6
-24 1 -23 -36 1 -44 22 -7 49 2 74 23 20 17 57 26 57 14 0 -18 -64 -63 -84
-58 -11 3 -25 1 -32 -5 -8 -7 -14 -7 -19 0 -4 7 -16 1 -32 -13 -33 -31 -60
-17 -66 34 -3 33 -4 32 -7 -10 l-3 -45 -7 35 -7 35 -2 -37 c-1 -26 -6 -38 -18
-41 -16 -4 -16 -5 -1 -6 16 -1 36 -56 25 -67 -3 -3 -1 -19 3 -35 8 -28 -3 -51
-13 -27 -3 7 -6 3 -6 -10 -1 -13 3 -20 9 -17 5 3 7 0 5 -8 -3 -7 4 -22 16 -33
22 -19 22 -19 14 5 -5 16 -4 21 4 17 6 -4 11 0 11 8 0 9 -4 16 -10 16 -5 0 -7
6 -4 14 3 8 1 17 -5 21 -6 3 -11 11 -11 16 0 6 5 7 10 4 6 -4 15 7 21 24 6 17
15 28 20 25 5 -3 9 0 9 5 0 33 18 63 32 55 6 -4 9 -3 5 2 -3 5 15 10 39 10 42
1 44 0 44 -28 0 -16 -4 -27 -9 -24 -12 8 -41 -4 -41 -16 0 -6 9 -8 21 -5 20 5
20 5 4 -20 -10 -14 -12 -23 -7 -19 6 3 13 2 16 -3 4 -5 2 -13 -4 -16 -7 -4 -4
-13 9 -24 17 -15 19 -27 16 -74 -3 -35 -1 -57 6 -57 6 0 6 -7 -1 -21 -19 -34
-20 -60 -4 -66 13 -5 13 -7 2 -14 -8 -6 -9 -9 -1 -9 6 0 9 -9 6 -21 -6 -20 -7
-21 -19 -5 -7 10 -10 24 -8 30 3 9 -4 12 -23 11 -17 0 -28 -7 -28 -16 0 -7 -4
-17 -8 -20 -9 -7 2 -39 14 -39 4 0 6 7 2 16 -5 14 -3 15 14 6 11 -6 26 -18 33
-27 12 -14 11 -18 -1 -25 -10 -7 -15 -3 -19 15 -5 21 -7 22 -24 9 -20 -14 -20
-14 0 -29 18 -14 18 -14 0 -15 -10 0 -27 11 -38 26 -26 32 -71 30 -76 -4 -4
-26 20 -39 50 -25 15 6 31 5 55 -6 26 -12 33 -21 33 -44 0 -26 -2 -28 -17 -16
-14 12 -16 12 -11 -1 2 -8 12 -16 21 -18 14 -3 17 5 17 36 0 37 28 81 42 66
12 -11 27 62 25 119 -1 39 2 56 9 53 6 -2 17 1 23 7 9 9 14 8 21 -3 7 -11 10
-5 10 21 0 23 -10 50 -26 74 -18 27 -23 45 -19 64 3 15 1 40 -5 56 -15 41 23
125 57 125 19 0 24 5 22 23 -1 12 6 39 15 60 14 31 20 36 31 27 14 -11 17
-102 4 -94 -4 2 -9 -3 -13 -11 -6 -16 22 -35 42 -28 6 3 12 14 12 26 -1 20 -2
20 -11 5 -5 -10 -15 -18 -22 -18 -9 0 -9 2 0 8 7 5 16 28 19 53 6 41 3 49 -21
73 -21 21 -24 30 -15 41 14 17 10 57 -7 63 -7 2 -13 0 -14 -5z m1 -98 c0 -3
-7 -22 -16 -43 -10 -20 -17 -44 -18 -52 -1 -8 -10 -16 -21 -17 -16 -1 -16 -1
-2 3 9 3 17 10 17 16 0 5 -7 8 -15 4 -20 -7 -19 6 6 54 12 22 27 40 35 40 8 0
14 -2 14 -5z m-94 -139 c-7 -25 -16 -49 -20 -53 -5 -5 -6 -2 -1 6 4 7 3 16 -4
21 -9 5 -8 16 6 42 24 47 33 39 19 -16z m11 -232 c2 -5 -6 -10 -17 -10 -20 0
-25 7 -13 20 9 8 26 3 30 -10z m0 -39 c-5 -14 -29 -13 -34 2 -3 7 4 11 16 10
12 -1 20 -6 18 -12z m-207 -230 c-7 -9 -15 -13 -19 -10 -3 3 1 10 9 15 21 14
24 12 10 -5z"/>
<path d="M715 1029 c-17 -8 -15 -9 10 -5 28 4 29 3 10 -11 -11 -8 -19 -18 -18
-22 1 -4 4 -33 7 -66 2 -32 11 -62 18 -66 10 -7 10 -9 1 -9 -7 0 -13 -9 -13
-20 0 -15 7 -20 29 -20 34 0 48 15 31 35 -8 9 -8 15 0 20 15 10 2 25 -23 26
-22 1 -22 1 1 7 13 4 23 10 23 15 -1 4 -1 12 -1 17 0 6 -11 10 -25 10 -16 0
-25 6 -25 16 0 8 5 12 10 9 6 -3 10 0 10 7 0 10 3 9 10 -2 11 -18 23 -8 14 13
-4 12 -14 15 -33 12 -25 -5 -25 -5 -3 6 47 25 16 51 -33 28z m58 -106 c-7 -2
-19 -2 -25 0 -7 3 -2 5 12 5 14 0 19 -2 13 -5z m4 -49 c-3 -3 -12 -4 -19 -1
-8 3 -5 6 6 6 11 1 17 -2 13 -5z"/>
<path d="M272 1000 c0 -19 2 -27 5 -17 2 9 2 25 0 35 -3 9 -5 1 -5 -18z"/>
<path d="M82 983 c2 -9 14 -20 28 -24 22 -6 21 -7 -10 -9 -19 -1 -29 -4 -22
-7 14 -6 16 -33 2 -33 -5 0 -10 -4 -10 -10 0 -5 14 -10 30 -10 25 0 30 4 30
24 0 14 4 36 10 50 6 17 6 26 0 26 -6 0 -10 -6 -10 -12 0 -10 -3 -9 -9 1 -5 8
-14 10 -21 6 -9 -5 -11 -4 -6 3 4 7 2 12 -4 12 -6 0 -10 -8 -8 -17z"/>
<path d="M271 944 c0 -11 3 -14 6 -6 3 7 2 16 -1 19 -3 4 -6 -2 -5 -13z"/>
<path d="M261 894 c0 -11 3 -14 6 -6 3 7 2 16 -1 19 -3 4 -6 -2 -5 -13z"/>
<path d="M80 870 c10 -6 11 -10 3 -10 -7 0 -13 -4 -13 -10 0 -5 9 -10 20 -10
17 0 19 -2 8 -14 -9 -10 -15 -11 -20 -2 -4 6 -8 -8 -8 -31 0 -38 3 -42 28 -46
l27 -4 -28 -2 c-26 -1 -28 -4 -25 -40 2 -37 4 -40 30 -38 35 3 36 12 1 26
l-28 11 32 -5 32 -4 -4 42 c-3 23 -5 61 -6 85 -1 23 -7 42 -13 42 -6 0 -4 5 4
10 11 7 6 10 -20 10 -26 0 -31 -3 -20 -10z m40 -97 c0 -15 -2 -16 -10 -3 -9
13 -11 13 -20 0 -8 -13 -10 -12 -10 3 0 10 8 17 20 17 12 0 20 -7 20 -17z"/>
<path d="M341 866 c-8 -10 -9 -16 -1 -21 5 -3 13 1 16 10 9 22 -1 29 -15 11z"/>
<path d="M321 824 c0 -11 3 -14 6 -6 3 7 2 16 -1 19 -3 4 -6 -2 -5 -13z"/>
<path d="M733 771 c-1 -21 3 -31 15 -34 16 -4 16 -5 0 -6 -31 -2 -19 -21 12
-21 28 0 44 19 18 21 -7 0 -4 4 7 9 19 8 19 8 -4 17 l-25 10 25 7 c23 7 23 8
4 16 -37 16 -50 11 -52 -19z"/>
<path d="M360 756 c0 -2 9 -6 20 -9 11 -3 18 -1 14 4 -5 9 -34 13 -34 5z"/>
<path d="M730 671 c0 -16 6 -32 13 -34 10 -4 10 -6 0 -6 -7 -1 -13 -6 -13 -12
0 -6 14 -9 33 -7 41 4 43 30 2 39 -30 7 -30 7 -3 8 30 1 49 21 21 22 -16 0
-16 1 2 9 16 7 13 9 -17 9 -35 1 -38 -1 -38 -28z"/>
<path d="M383 670 c2 -8 0 -23 -5 -32 -11 -22 7 -24 27 -5 8 9 10 19 4 28 -5
8 -9 10 -9 4 0 -5 -5 -3 -11 5 -9 13 -10 13 -6 0z"/>
<path d="M66 641 c-9 -15 22 -33 44 -26 20 7 29 35 9 35 -5 0 -7 -4 -4 -10 3
-5 -3 -10 -15 -10 -12 0 -18 5 -15 10 3 6 2 10 -4 10 -5 0 -12 -4 -15 -9z"/>
<path d="M360 585 c-4 -36 -3 -40 8 -85 5 -19 13 -34 19 -33 6 1 9 -6 6 -17
-4 -15 -1 -18 16 -13 20 5 21 7 6 30 -9 13 -14 27 -11 31 2 4 -2 18 -9 32 -13
24 -14 23 -8 -15 3 -22 3 -37 -1 -34 -4 4 -11 35 -15 70 -5 41 -9 53 -11 34z"/>
<path d="M81 581 c-6 -11 -11 -29 -11 -40 0 -12 -5 -21 -11 -21 -14 0 -3 -118
13 -137 9 -11 9 -16 -1 -22 -16 -10 2 -51 22 -51 7 0 4 -5 -6 -11 -18 -10 -18
-12 4 -35 12 -13 32 -25 43 -25 17 -1 18 -2 4 -6 -10 -2 -18 -8 -18 -13 0 -11
40 -34 47 -27 2 3 -5 8 -18 12 -31 10 -5 25 46 25 29 0 36 -3 25 -10 -12 -8
-11 -10 7 -10 19 0 21 4 16 35 -4 22 -2 35 5 35 16 0 32 -34 31 -67 -1 -28 -1
-28 -8 -3 -6 21 -8 22 -13 8 -4 -10 -23 -20 -45 -24 -21 -4 -33 -9 -26 -11 7
-2 10 -10 7 -18 -4 -8 13 -22 46 -39 59 -30 78 -32 106 -12 15 12 17 17 7 27
-7 7 -13 24 -13 37 0 30 -17 62 -33 62 -7 0 -23 14 -35 30 -26 34 -42 39 -42
11 0 -11 -5 -23 -10 -26 -6 -3 -10 2 -10 12 0 15 -2 16 -10 3 -8 -12 -10 -10
-9 10 0 14 4 34 8 45 8 19 8 19 19 0 14 -25 16 -11 1 16 -5 11 -14 17 -18 14
-13 -8 -39 54 -55 131 -8 38 -19 70 -25 72 -6 2 -11 10 -11 17 0 23 -18 27
-29 6z m42 -45 c9 9 9 -19 1 -41 -9 -22 -23 -1 -25 35 l-1 25 -8 -25 c-8 -24
-8 -24 -9 6 -1 41 11 52 25 20 5 -15 13 -23 17 -20z m-28 -82 l3 -28 -19 23
c-11 13 -19 33 -19 44 0 19 1 20 16 6 8 -9 17 -29 19 -45z m40 -11 c-6 -25 -8
-26 -17 -10 -7 13 -6 22 3 33 16 20 23 10 14 -23z m-30 -51 c-3 -7 -1 -11 3
-8 4 2 8 -4 8 -14 0 -18 -2 -18 -23 2 -13 12 -23 30 -23 40 0 16 3 16 20 6 11
-7 18 -19 15 -26z m74 -54 c1 -10 -3 -18 -9 -18 -5 0 -10 15 -11 33 0 17 -3
27 -5 20 -3 -7 -11 -10 -19 -7 -11 4 -11 12 -2 37 l10 31 18 -39 c10 -22 18
-48 18 -57z m-54 -3 c17 -7 23 -14 15 -14 -13 -1 -13 -2 0 -11 21 -14 -3 -13
-34 1 -27 13 -43 39 -23 39 7 -1 26 -7 42 -15z m24 -65 c-8 -6 -5 -10 12 -13
18 -3 15 -5 -11 -6 -32 -1 -60 13 -60 29 0 3 16 4 36 2 23 -3 32 -7 23 -12z
m180 -89 c0 -14 -3 -20 -6 -13 -3 9 -12 7 -30 -8 -28 -22 -59 -25 -83 -10 -13
9 -13 11 0 20 8 5 29 10 45 10 24 0 27 -2 15 -11 -12 -8 -12 -10 5 -7 15 2 21
12 23 36 3 28 6 31 18 21 8 -6 14 -23 13 -38z m-8 -45 c-10 -12 -8 -14 11 -10
l23 5 -22 -12 c-12 -7 -34 -8 -50 -4 l-28 7 25 13 c34 20 56 20 41 1z"/>
<path d="M750 586 c0 -7 -6 -19 -14 -25 -8 -6 -17 -33 -20 -59 -9 -59 -45
-154 -57 -146 -5 3 -17 -8 -26 -24 -25 -40 -65 -85 -89 -98 -12 -7 -21 -26
-24 -50 -5 -42 -2 -41 -85 -30 -46 7 -67 -3 -63 -27 3 -19 10 -22 56 -24 38
-1 55 2 59 13 4 12 8 12 26 -1 30 -21 48 -19 107 11 34 17 50 30 46 40 -3 9 3
16 19 20 13 3 31 14 41 25 16 17 16 19 1 19 -10 0 -16 -5 -14 -12 3 -18 -59
-33 -86 -20 l-22 11 25 0 c20 1 22 3 10 11 -11 7 -5 10 23 10 21 0 53 7 72 15
36 15 58 46 37 53 -8 2 -5 12 9 30 19 24 19 27 3 32 -12 5 -14 9 -6 14 7 4 12
12 12 19 0 6 -7 1 -16 -11 -15 -21 -42 -32 -29 -12 3 6 -1 7 -9 4 -10 -4 -16
-1 -16 7 0 26 -20 -14 -20 -41 0 -18 -3 -21 -9 -11 -7 11 -10 10 -14 -5 -4
-17 -5 -16 -6 3 0 12 6 28 14 37 8 8 15 24 15 35 0 25 15 28 24 5 6 -15 10
-14 32 7 21 20 27 21 35 9 7 -11 9 -6 7 17 -2 29 -4 31 -18 18 -14 -13 -16
-12 -17 4 -1 11 7 27 18 37 18 16 19 16 19 -1 0 -10 3 -15 7 -12 3 4 2 17 -4
30 -6 12 -16 37 -23 55 -13 32 -30 43 -30 18z m30 -49 c0 -10 -4 -16 -9 -13
-5 3 -12 -6 -15 -19 -8 -31 -26 -23 -26 11 0 14 4 22 10 19 6 -3 10 2 10 13 0
10 3 22 7 25 9 9 23 -13 23 -36z m-39 -78 c9 -17 8 -20 -2 -14 -9 6 -11 3 -6
-9 4 -10 3 -15 -3 -11 -10 6 -14 55 -5 55 2 0 9 -10 16 -21z m39 -118 c0 -15
-42 -41 -65 -41 -15 0 -16 3 -7 9 8 4 13 12 12 17 -2 9 26 22 48 23 6 1 12 -3
12 -8z m-121 -43 c0 -32 -2 -38 -8 -23 -8 19 -9 18 -13 -5 -5 -22 -5 -21 -7 7
0 17 2 38 5 47 12 30 24 16 23 -26z m97 -34 c-11 -8 -34 -14 -50 -13 -30 1
-30 1 -6 9 14 5 19 9 10 10 -8 2 1 6 20 9 43 8 51 4 26 -15z m-160 -49 c-28
-29 -30 17 -2 54 9 12 12 9 14 -12 2 -15 -3 -34 -12 -42z m-47 -31 c-12 -28
-13 -28 -17 -6 -5 32 6 58 19 45 6 -6 6 -19 -2 -39z m96 -18 c18 -13 18 -14
-3 -20 -25 -8 -82 1 -82 13 0 24 55 29 85 7z m-188 -48 c-3 -7 -5 -2 -5 12 0
14 2 19 5 13 2 -7 2 -19 0 -25z m119 18 c18 -14 18 -15 1 -21 -9 -4 -28 -4
-42 -1 -21 5 -23 9 -13 21 17 18 29 18 54 1z m-136 -6 c0 -5 -4 -10 -10 -10
-5 0 -10 5 -10 10 0 6 5 10 10 10 6 0 10 -4 10 -10z"/>
<path d="M578 163 c7 -3 16 -2 19 1 4 3 -2 6 -13 5 -11 0 -14 -3 -6 -6z"/>
<path d="M297 545 c-8 -20 -4 -29 11 -24 5 2 6 13 2 23 -6 19 -7 19 -13 1z"/>
<path d="M305 495 c5 -11 8 -28 9 -37 0 -9 3 -15 7 -12 10 6 5 -54 -5 -63 -5
-4 -6 5 -4 20 3 17 1 26 -5 24 -5 -1 -11 -18 -11 -35 -1 -30 1 -32 23 -27 16
4 28 0 37 -12 13 -16 14 -14 8 20 -5 27 -3 37 7 37 8 0 6 5 -6 13 -11 9 -15
19 -10 27 5 9 4 11 -3 6 -7 -4 -20 7 -33 26 -12 18 -18 24 -14 13z"/>
<path d="M500 322 c0 -6 5 -14 10 -17 6 -4 8 -11 4 -16 -3 -5 -10 -6 -16 -3
-7 4 -8 2 -4 -4 11 -19 36 -14 36 7 0 10 -7 24 -15 31 -9 8 -15 9 -15 2z"/>
</g>
</svg>
